# xmcd
#
# Track frame offsets:
#  150
#  22133
#  37189
#  61884
#  74162
#  91888
#  106273
#  120724
#  135821
#  152477
#  173103
#  191429
#  204054
#
# Disc length: 3001 seconds
#
# Revision: 0
# Processed by: cddbd v1.5.1PL2 Copyright (c) Steve Scherf et al.
# Submitted via: Collectorz.com_Music_Collector 6.11
#
DISCID=aa0bb70d
DTITLE=Chad Fadely - Mandolin Escapes
DYEAR=2004
DGENRE=Bluegrass
TTITLE0=Come Hither To Go Yonder
TTITLE1=Your Love Is Like a Flower
TTITLE2=Summer of Regret
TTITLE3=Pike County Breakdown
TTITLE4=Love of the Mountains
TTITLE5=Georgia Cracker
TTITLE6=Daybreak in Dixie
TTITLE7=Walkin' the Dog
TTITLE8=Big Sciota
TTITLE9=Lonesome Moonlight Waltz
TTITLE10=Jubilee Road
TTITLE11=Road to Rapid City
TTITLE12=Watson's Blues
EXTD=
EXTT0=
EXTT1=
EXTT2=
EXTT3=
EXTT4=
EXTT5=
EXTT6=
EXTT7=
EXTT8=
EXTT9=
EXTT10=
EXTT11=
EXTT12=
PLAYORDER=
